<svg role="img" viewBox="-2 -2 28 28" xmlns="http://www.w3.org/2000/svg" id="Amazoneks--Streamline-Simple-Icons"
    height="24" width="24">
    <desc>Amazoneks Streamline Icon: https://streamlinehq.com</desc>
    <title>Amazon EKS</title>
    <path
        d="m14.67 8.505 -2.875 3.335 3.128 3.648h-1.168l-2.808 -3.277v3.368h-0.842V8.421h0.842v2.947l2.603 -2.863Zm7.225 6.751 -3.369 -2.021V8.421a0.42 0.42 0 0 0 -0.209 -0.364l-4.843 -2.825V1.159l8.42 4.976Zm0.635 -9.724L13.267 0.06a0.422 0.422 0 0 0 -0.635 0.362v5.053c0 0.15 0.08 0.288 0.208 0.363l4.844 2.826v4.81a0.42 0.42 0 0 0 0.205 0.362l4.21 2.526a0.42 0.42 0 0 0 0.638 -0.361V5.895a0.42 0.42 0 0 0 -0.207 -0.363ZM11.977 23.1l-9.872 -5.248V6.135l8.421 -4.976v4.084L6.09 8.066a0.422 0.422 0 0 0 -0.195 0.355v7.158a0.42 0.42 0 0 0 0.226 0.373l5.665 2.948a0.42 0.42 0 0 0 0.387 0l5.496 -2.84 3.382 2.03Zm10.135 -5.356 -4.21 -2.526a0.42 0.42 0 0 0 -0.411 -0.013l-5.51 2.847 -5.244 -2.729v-6.67l4.436 -2.824a0.422 0.422 0 0 0 0.195 -0.355V0.42a0.421 0.421 0 0 0 -0.635 -0.362L1.47 5.532a0.421 0.421 0 0 0 -0.207 0.363v12.21c0 0.156 0.086 0.299 0.223 0.372l10.297 5.474a0.421 0.421 0 0 0 0.401 -0.004l9.915 -5.473a0.422 0.422 0 0 0 0.013 -0.73Z"
        fill="#000000" stroke-width="1"></path>
</svg>